<svg width="28" height="27" viewBox="0 0 28 27" fill="none" xmlns="http://www.w3.org/2000/svg">
<g id="calendar-with-a-clock-time-tools_icon-icons.com_56831 1" clip-path="url(#clip0_34_1397)">
<g id="Group">
<path id="Vector" d="M3.50021 4.21884V0.843757C3.50021 0.377334 3.89152 0 4.37533 0C4.85891 0 5.25022 0.377334 5.25022 0.843757V4.21884C5.25022 4.68515 4.85891 5.06249 4.37533 5.06249C3.89152 5.06254 3.50021 4.68515 3.50021 4.21884ZM18.3754 5.06254C18.8588 5.06254 19.2504 4.68521 19.2504 4.2189V0.843757C19.2504 0.377334 18.8588 0 18.3754 0C17.8917 0 17.5001 0.377334 17.5001 0.843757V4.21884C17.5001 4.68515 17.8917 5.06254 18.3754 5.06254ZM28.0001 20.2498C28.0001 23.9779 24.866 27.0001 21.0001 27.0001C17.1346 27.0001 14.0002 23.9779 14.0002 20.2498C14.0002 16.5223 17.1345 13.5 21.0001 13.5C24.866 13.5 28.0001 16.5223 28.0001 20.2498ZM26.2503 20.2498C26.2503 17.4586 23.8953 15.1874 21.0002 15.1874C18.1053 15.1874 15.7503 17.4585 15.7503 20.2498C15.7503 23.0416 18.1053 25.3125 21.0002 25.3125C23.8953 25.3125 26.2503 23.0416 26.2503 20.2498ZM7.00029 10.125H3.50021V13.5H7.00029V10.125ZM3.50021 18.5625H7.00029V15.1874H3.50021V18.5625ZM8.75018 13.5H12.2503V10.125H8.75018V13.5ZM8.75018 18.5625H12.2503V15.1874H8.75018V18.5625ZM1.75031 20.0821V8.43746H21.0002V11.8125H22.7503V5.2307C22.7503 4.20565 21.9024 3.37497 20.855 3.37497H20.1252V4.2189C20.1252 5.14824 19.3406 5.90635 18.3754 5.90635C17.4099 5.90635 16.6254 5.14824 16.6254 4.2189V3.37497H6.12517V4.2189C6.12517 5.14824 5.34076 5.90635 4.37539 5.90635C3.40978 5.90635 2.62532 5.14824 2.62532 4.2189V3.37497H1.89637C0.848878 3.37497 0.000244141 4.20565 0.000244141 5.2307V20.0821C0.000244141 21.1038 0.848878 21.9377 1.89637 21.9377H12.2503V20.2499H1.89637C1.81708 20.2498 1.75031 20.1709 1.75031 20.0821ZM17.5001 13.5V10.125H14.0003V13.5H17.5001ZM23.6252 20.2498H21.0001V17.7185C21.0001 17.2524 20.6088 16.875 20.1251 16.875C19.6414 16.875 19.2504 17.2524 19.2504 17.7185V21.0939C19.2504 21.5601 19.6414 21.9376 20.1251 21.9376H23.6252C24.1089 21.9376 24.5002 21.5601 24.5002 21.0939C24.5002 20.6274 24.1089 20.2498 23.6252 20.2498Z" fill="#E7E7E7"/>
</g>
</g>
<defs>
<clipPath id="clip0_34_1397">
<rect width="28" height="27" fill="white"/>
</clipPath>
</defs>
</svg>
