<svg width="26" height="27" viewBox="0 0 26 27" fill="none" xmlns="http://www.w3.org/2000/svg">
<g id="location-city_118949 1" clip-path="url(#clip0_34_1389)">
<rect width="26" height="27" fill="white"/>
<g id="Icons">
<g id="Rounded">
<g id="Social">
<g id="-Round-/-Social-/-location_city">
<g id="Group">
<path id="&#240;&#159;&#148;&#185;-Icon-Color" fill-rule="evenodd" clip-rule="evenodd" d="M17.3333 12.7895V5.44263C17.3333 4.68948 17.03 3.96474 16.4811 3.43895L14.0111 1.00895C13.4478 0.45474 12.5378 0.45474 11.9744 1.00895L9.51889 3.42474C8.97 3.96474 8.66667 4.68948 8.66667 5.44263V7.10527H2.88889C1.3 7.10527 0 8.38421 0 9.94737V24.1579C0 25.7211 1.3 27 2.88889 27H23.1111C24.7 27 26 25.7211 26 24.1579V15.6316C26 14.0684 24.7 12.7895 23.1111 12.7895H17.3333ZM5.77778 24.1579H2.88889V21.3158H5.77778V24.1579ZM5.77778 18.4737H2.88889V15.6316H5.77778V18.4737ZM5.77778 12.7895H2.88889V9.94737H5.77778V12.7895ZM14.4444 24.1579H11.5556V21.3158H14.4444V24.1579ZM14.4444 18.4737H11.5556V15.6316H14.4444V18.4737ZM14.4444 12.7895H11.5556V9.94737H14.4444V12.7895ZM14.4444 7.10527H11.5556V4.26316H14.4444V7.10527ZM23.1111 24.1579H20.2222V21.3158H23.1111V24.1579ZM23.1111 18.4737H20.2222V15.6316H23.1111V18.4737Z" fill="#E7E7E7"/>
</g>
</g>
</g>
</g>
</g>
</g>
<defs>
<clipPath id="clip0_34_1389">
<rect width="26" height="27" fill="white"/>
</clipPath>
</defs>
</svg>
