<svg width="37" height="37" viewBox="0 0 37 37" fill="none" xmlns="http://www.w3.org/2000/svg">
<g id="magnifier_105027 1" clip-path="url(#clip0_34_1384)">
<g id="Group">
<g id="Search">
<g id="Group_2">
<path id="Vector" d="M23.125 0C15.4626 0 9.25 6.21255 9.25 13.875C9.25 17.0813 10.3472 20.024 12.1741 22.3734L0.50875 34.0389C0.170007 34.3777 0 34.8204 0 35.2656C0 35.7096 0.170007 36.1536 0.50875 36.4924C0.846405 36.8312 1.29034 37 1.73441 37C2.17847 37 2.62241 36.8312 2.96 36.4924L14.6265 24.8258C16.976 26.6528 19.9188 27.75 23.125 27.75C30.7874 27.75 37 21.5374 37 13.875C37 6.21255 30.7874 0 23.125 0ZM23.125 24.2812C17.3866 24.2812 12.7188 19.6134 12.7188 13.875C12.7188 8.13655 17.3866 3.46875 23.125 3.46875C28.8634 3.46875 33.5312 8.13655 33.5312 13.875C33.5312 19.6134 28.8634 24.2812 23.125 24.2812Z" fill="white"/>
</g>
</g>
</g>
</g>
<defs>
<clipPath id="clip0_34_1384">
<rect width="37" height="37" fill="white"/>
</clipPath>
</defs>
</svg>
