<svg width="48" height="48" viewBox="0 0 48 48" fill="none" xmlns="http://www.w3.org/2000/svg">
<g id="meetings_meeting_table_people_work_icon_144587 1">
<path id="Vector" d="M36.02 22.01C37.6769 22.01 39.02 20.6668 39.02 19.01C39.02 17.3531 37.6769 16.01 36.02 16.01C34.3632 16.01 33.02 17.3531 33.02 19.01C33.02 20.6668 34.3632 22.01 36.02 22.01Z" fill="#E7E7E7"/>
<path id="Vector_2" d="M24 17.57C25.6569 17.57 27 16.2269 27 14.57C27 12.9132 25.6569 11.57 24 11.57C22.3431 11.57 21 12.9132 21 14.57C21 16.2269 22.3431 17.57 24 17.57Z" fill="#E7E7E7"/>
<path id="Vector_3" d="M29 25V22C29 21.2044 28.6839 20.4413 28.1213 19.8787C27.5587 19.3161 26.7956 19 26 19H22C21.2044 19 20.4413 19.3161 19.8787 19.8787C19.3161 20.4413 19 21.2044 19 22V25H29Z" fill="#E7E7E7"/>
<path id="Vector_4" d="M12.09 22.01C13.7469 22.01 15.09 20.6668 15.09 19.01C15.09 17.3531 13.7469 16.01 12.09 16.01C10.4331 16.01 9.09 17.3531 9.09 19.01C9.09 20.6668 10.4331 22.01 12.09 22.01Z" fill="#E7E7E7"/>
<path id="Vector_5" d="M38.06 23.48H36.06C34.404 23.48 32.5 24.823 32.5 26.48L37.94 34.06H41.02V26.48C41.0201 25.6912 40.7095 24.9342 40.1555 24.3727C39.6015 23.8112 38.8487 23.4905 38.06 23.48ZM17.5 25.985L14.31 31H12L15.5 26C15.5 24.34 14.16 23.45 12.5 23.45H10.038C9.24235 23.45 8.47929 23.7661 7.91668 24.3287C7.35407 24.8913 7.038 25.6543 7.038 26.45V32C7.038 32.5304 7.24872 33.0391 7.62379 33.4142C7.99886 33.7893 8.50757 34 9.038 34H16.5L16.44 35.042H11.16L9 38.968H39L30.5 25.985H17.5Z" fill="#E7E7E7"/>
</g>
</svg>
